<svg width="64" height="49" viewBox="0 0 64 49" fill="none" xmlns="http://www.w3.org/2000/svg">
<g filter="url(#filter0_d_86_2723)">
<rect x="2" y="2" width="60" height="40" rx="10" fill="#F5A12D"/>
<path d="M30.4152 45.9413C31.2158 46.9813 32.7842 46.9813 33.5848 45.9413L36.4495 42.22C37.4618 40.9049 36.5243 39 34.8646 39H29.1354C27.4757 39 26.5382 40.9049 27.5505 42.22L30.4152 45.9413Z" fill="#F5A12D"/>
<path d="M12.1738 27H10.2734L13.7598 17.1016H15.9473L19.4473 27H17.5469L16.7266 24.5527H12.9941L12.1738 27ZM13.4727 23.1172H16.248L14.8945 19.125H14.8125L13.4727 23.1172ZM22.2464 17.1016V27H20.469V17.1016H22.2464ZM37.2646 15.8574V28.2168H35.8017V21.8867H34.4892V27.6152H33.0536V16.0762H34.4892V20.6289H35.8017V15.8574H37.2646ZM31.8368 17.1973V25.0312H26.9833V17.1973H31.8368ZM28.4052 18.4004V23.8281H30.415V18.4004H28.4052ZM45.8742 17.2383V18.4414H43.2356C43.2424 19.8154 44.3225 21.1621 46.2981 21.6816L45.5871 22.8574C44.1516 22.4814 43.0988 21.6338 42.5246 20.5469C41.9641 21.7568 40.9113 22.707 39.4348 23.1445L38.6965 21.9688C40.6584 21.3945 41.7111 19.9248 41.718 18.4414H39.0793V17.2383H41.718V15.8711H43.2492V17.2383H45.8742ZM48.841 15.8711V23.3633H47.3098V15.8711H48.841ZM44.6574 23.582C47.2551 23.582 48.8684 24.4297 48.8684 25.8926C48.8684 27.3555 47.2551 28.2031 44.6574 28.2031C42.0324 28.2031 40.4328 27.3555 40.4328 25.8926C40.4328 24.4297 42.0324 23.582 44.6574 23.582ZM44.6574 24.7578C42.9074 24.7578 41.9641 25.168 41.9641 25.8926C41.9641 26.6309 42.9074 27.0273 44.6574 27.0273C46.3938 27.0273 47.3645 26.6309 47.3781 25.8926C47.3645 25.168 46.3938 24.7578 44.6574 24.7578ZM53.0347 17.1016L52.8843 24.0879H51.3394L51.1753 17.1016H53.0347ZM52.1187 27.1094C51.5308 27.1094 51.0523 26.6309 51.0523 26.043C51.0523 25.4688 51.5308 24.9902 52.1187 24.9902C52.6792 24.9902 53.1714 25.4688 53.1714 26.043C53.1714 26.6309 52.6792 27.1094 52.1187 27.1094Z" fill="white"/>
</g>
<defs>
<filter id="filter0_d_86_2723" x="0" y="0" width="64" height="48.7212" filterUnits="userSpaceOnUse" color-interpolation-filters="sRGB">
<feFlood flood-opacity="0" result="BackgroundImageFix"/>
<feColorMatrix in="SourceAlpha" type="matrix" values="0 0 0 0 0 0 0 0 0 0 0 0 0 0 0 0 0 0 127 0" result="hardAlpha"/>
<feOffset/>
<feGaussianBlur stdDeviation="1"/>
<feComposite in2="hardAlpha" operator="out"/>
<feColorMatrix type="matrix" values="0 0 0 0 0 0 0 0 0 0 0 0 0 0 0 0 0 0 0.45 0"/>
<feBlend mode="normal" in2="BackgroundImageFix" result="effect1_dropShadow_86_2723"/>
<feBlend mode="normal" in="SourceGraphic" in2="effect1_dropShadow_86_2723" result="shape"/>
</filter>
</defs>
</svg>
