<svg width="10" height="10" viewBox="0 0 10 10" fill="none" xmlns="http://www.w3.org/2000/svg">
<g clip-path="url(#clip0_87_1511)">
<path d="M5.00049 0.833204C5.5532 0.835018 6.10007 0.946429 6.60944 1.16099C7.11881 1.37555 7.58056 1.689 7.96799 2.0832H6.66716C6.55665 2.0832 6.45067 2.1271 6.37253 2.20524C6.29439 2.28338 6.25049 2.38936 6.25049 2.49987C6.25049 2.61038 6.29439 2.71636 6.37253 2.7945C6.45067 2.87264 6.55665 2.91654 6.66716 2.91654H8.39341C8.59859 2.91643 8.79533 2.83487 8.94041 2.68979C9.08549 2.54471 9.16705 2.34797 9.16716 2.14279V0.416538C9.16716 0.306031 9.12326 0.20005 9.04512 0.12191C8.96698 0.0437695 8.861 -0.000129156 8.75049 -0.000129156C8.63999 -0.000129156 8.534 0.0437695 8.45586 0.12191C8.37772 0.20005 8.33383 0.306031 8.33383 0.416538V1.28237C7.64515 0.662143 6.7974 0.245875 5.88553 0.0801829C4.97366 -0.085509 4.03367 0.00591749 3.17082 0.344224C2.30797 0.682531 1.55633 1.25436 1.00008 1.99567C0.443828 2.73699 0.104925 3.61851 0.0213246 4.54154C0.0159427 4.59956 0.0227062 4.65807 0.0411842 4.71334C0.0596621 4.7686 0.0894494 4.81941 0.128648 4.86253C0.167847 4.90565 0.215597 4.94013 0.268857 4.96378C0.322117 4.98742 0.379718 4.99972 0.437991 4.99987C0.539903 5.00117 0.638631 4.96439 0.714849 4.89672C0.791067 4.82906 0.839289 4.73539 0.850075 4.63404C0.94283 3.59685 1.42006 2.63183 2.18802 1.92855C2.95599 1.22528 3.95917 0.834576 5.00049 0.833204Z" fill="white"/>
<path d="M9.56259 5.00003C9.46068 4.99873 9.36195 5.03552 9.28573 5.10318C9.20951 5.17085 9.16129 5.26452 9.15051 5.36587C9.08163 6.15888 8.78672 6.9155 8.30078 7.54596C7.81483 8.17641 7.15824 8.65425 6.4089 8.92277C5.65956 9.1913 4.84892 9.23924 4.07315 9.06092C3.29739 8.88259 2.58905 8.48549 2.03217 7.91671H3.33301C3.44351 7.91671 3.5495 7.87281 3.62764 7.79467C3.70578 7.71653 3.74967 7.61055 3.74967 7.50004C3.74967 7.38953 3.70578 7.28355 3.62764 7.20541C3.5495 7.12727 3.44351 7.08337 3.33301 7.08337H1.60676C1.50513 7.08332 1.40449 7.10329 1.31059 7.14216C1.21669 7.18102 1.13137 7.23802 1.05951 7.30988C0.987652 7.38174 0.93066 7.46706 0.891795 7.56096C0.852929 7.65486 0.832953 7.7555 0.833008 7.85712V9.58338C0.833008 9.69389 0.876907 9.79987 0.955047 9.87801C1.03319 9.95615 1.13917 10 1.24967 10C1.36018 10 1.46616 9.95615 1.5443 9.87801C1.62244 9.79987 1.66634 9.69389 1.66634 9.58338V8.71754C2.35502 9.33777 3.20276 9.75404 4.11463 9.91973C5.0265 10.0854 5.9665 9.994 6.82935 9.65569C7.6922 9.31738 8.44383 8.74555 9.00009 8.00424C9.55634 7.26292 9.89524 6.38139 9.97884 5.45837C9.98422 5.40034 9.97746 5.34183 9.95898 5.28657C9.9405 5.2313 9.91072 5.18049 9.87152 5.13737C9.83232 5.09425 9.78457 5.05977 9.73131 5.03613C9.67805 5.01248 9.62045 5.00019 9.56217 5.00003H9.56259Z" fill="white"/>
</g>
<defs>
<clipPath id="clip0_87_1511">
<rect width="10" height="10" fill="white"/>
</clipPath>
</defs>
</svg>
