<svg width="24" height="24" viewBox="0 0 24 24" fill="none" xmlns="http://www.w3.org/2000/svg">
<path d="M21.5605 8.23286C22.1459 7.64713 22.146 6.69747 21.5605 6.11177C20.9748 5.52598 20.0243 5.52598 19.4385 6.11177L12.2129 13.3383L4.98633 6.11177C4.40054 5.52606 3.45099 5.52601 2.86523 6.11177C2.27949 6.69753 2.27953 7.64708 2.86523 8.23286L10.8613 16.2299C10.9274 16.3485 11.0096 16.4612 11.1104 16.562C11.4139 16.8654 11.8152 17.0096 12.2129 16.9985C12.6105 17.0094 13.012 16.8654 13.3154 16.562C13.4169 16.4605 13.5001 16.3475 13.5664 16.228L21.5605 8.23286Z" fill="white"/>
<path d="M21.5605 8.23286C22.1459 7.64713 22.146 6.69747 21.5605 6.11177C20.9748 5.52598 20.0243 5.52598 19.4385 6.11177L12.2129 13.3383L4.98633 6.11177C4.40054 5.52606 3.45099 5.52601 2.86523 6.11177C2.27949 6.69753 2.27953 7.64708 2.86523 8.23286L10.8613 16.2299C10.9274 16.3485 11.0096 16.4612 11.1104 16.562C11.4139 16.8654 11.8152 17.0096 12.2129 16.9985C12.6105 17.0094 13.012 16.8654 13.3154 16.562C13.4169 16.4605 13.5001 16.3475 13.5664 16.228L21.5605 8.23286Z" fill="#F39E00"/>
</svg>
