<svg width="24" height="24" viewBox="0 0 24 24" fill="none" xmlns="http://www.w3.org/2000/svg">
<path d="M23.8209 11.181C22.8547 9.08574 21.4397 7.22855 19.6759 5.74103L22.7079 2.70903L21.2929 1.29303L17.9999 4.58303C16.1772 3.52875 14.1054 2.98213 11.9999 3.00003C4.49987 3.00003 1.05687 9.26103 0.178871 11.181C0.0610095 11.4383 0 11.718 0 12.001C0 12.284 0.0610095 12.5637 0.178871 12.821C1.14501 14.9163 2.56009 16.7735 4.32387 18.261L1.29287 21.293L2.70687 22.707L5.99987 19.417C7.82251 20.4713 9.89436 21.0179 11.9999 21C19.4999 21 22.9429 14.739 23.8209 12.819C23.9385 12.562 23.9994 12.2827 23.9994 12C23.9994 11.7174 23.9385 11.438 23.8209 11.181ZM1.99987 12.011C2.74987 10.366 5.69287 5.00003 11.9999 5.00003C13.5695 4.99085 15.1185 5.35703 16.5179 6.06803L14.7529 7.83303C13.7928 7.19563 12.6418 6.91003 11.4951 7.02468C10.3484 7.13933 9.27674 7.64717 8.46187 8.46203C7.64701 9.2769 7.13917 10.3486 7.02452 11.4953C6.90987 12.6419 7.19547 13.793 7.83287 14.753L5.75387 16.832C4.15425 15.5294 2.87074 13.8811 1.99987 12.011ZM14.9999 12C14.9999 12.7957 14.6838 13.5587 14.1212 14.1214C13.5586 14.684 12.7955 15 11.9999 15C11.5544 14.9983 11.1151 14.8957 10.7149 14.7L14.6999 10.715C14.8956 11.1152 14.9981 11.5545 14.9999 12ZM8.99987 12C8.99987 11.2044 9.31594 10.4413 9.87855 9.87871C10.4412 9.3161 11.2042 9.00003 11.9999 9.00003C12.4454 9.00175 12.8847 9.10432 13.2849 9.30003L9.29987 13.285C9.10416 12.8848 9.0016 12.4455 8.99987 12ZM11.9999 19C10.4303 19.0092 8.88123 18.643 7.48187 17.932L9.24687 16.167C10.2069 16.8044 11.358 17.09 12.5046 16.9754C13.6513 16.8607 14.723 16.3529 15.5379 15.538C16.3527 14.7232 16.8606 13.6515 16.9752 12.5048C17.0899 11.3581 16.8043 10.2071 16.1669 9.24703L18.2449 7.16903C19.8476 8.47284 21.1319 10.1251 21.9999 12C21.2359 13.657 18.2919 19 11.9999 19Z" fill="#424238"/>
</svg>
