<svg width="20" height="31" viewBox="0 0 20 31" fill="none" xmlns="http://www.w3.org/2000/svg">
<g filter="url(#filter0_f_49_1895)">
<ellipse cx="10" cy="25.0166" rx="7" ry="3" fill="#707070"/>
</g>
<path d="M10.0547 1.01837C5.25467 0.618366 2.05467 6.8517 1.05467 10.0184C0.554669 15.0182 8.55467 22.0186 10.5547 23.0186C12.5547 24.0186 18.5547 12.5186 19.0547 10.0184C19.5547 7.51818 16.0547 1.51837 10.0547 1.01837Z" fill="#F5A12D" stroke="#F5A12D"/>
<circle cx="10.0547" cy="10.0186" r="4" fill="white"/>
<path d="M10 23.9999C9.16255 24.0042 8.33626 23.8068 7.59032 23.424C6.84438 23.0413 6.20049 22.4845 5.71258 21.8001C1.92243 16.5436 0 12.5919 0 10.0541C0 7.38761 1.05357 4.8303 2.92893 2.94479C4.8043 1.05927 7.34784 0 10 0C12.6522 0 15.1957 1.05927 17.0711 2.94479C18.9464 4.8303 20 7.38761 20 10.0541C20 12.5919 18.0776 16.5436 14.2874 21.8001C13.7995 22.4845 13.1556 23.0413 12.4097 23.424C11.6637 23.8068 10.8375 24.0042 10 23.9999ZM10 2.18281C7.92384 2.18519 5.93338 3.01547 4.46531 4.49148C2.99724 5.9675 2.17144 7.96873 2.16907 10.0561C2.16907 12.066 4.05172 15.7826 7.46892 20.5212C7.75902 20.923 8.1396 21.25 8.57953 21.4754C9.01945 21.7009 9.50622 21.8184 10 21.8184C10.4938 21.8184 10.9805 21.7009 11.4205 21.4754C11.8604 21.25 12.241 20.923 12.5311 20.5212C15.9483 15.7826 17.8309 12.066 17.8309 10.0561C17.8286 7.96873 17.0028 5.9675 15.5347 4.49148C14.0666 3.01547 12.0762 2.18519 10 2.18281Z" fill="#F5A12D"/>
<defs>
<filter id="filter0_f_49_1895" x="1" y="20.0166" width="18" height="10" filterUnits="userSpaceOnUse" color-interpolation-filters="sRGB">
<feFlood flood-opacity="0" result="BackgroundImageFix"/>
<feBlend mode="normal" in="SourceGraphic" in2="BackgroundImageFix" result="shape"/>
<feGaussianBlur stdDeviation="1" result="effect1_foregroundBlur_49_1895"/>
</filter>
</defs>
</svg>
