<svg width="11" height="19" viewBox="0 0 11 19" fill="none" xmlns="http://www.w3.org/2000/svg">
<path d="M8.09668 0.439388C8.6824 -0.146093 9.63206 -0.146114 10.2178 0.439388C10.8035 1.02516 10.8035 1.97565 10.2178 2.56146L3.65723 9.12103L10.2178 15.6816C10.8034 16.2673 10.8034 17.2169 10.2178 17.8027C9.63203 18.3884 8.68246 18.3884 8.09668 17.8027L0.754883 10.4609C0.641708 10.3961 0.534135 10.3173 0.4375 10.2206C0.134715 9.91784 -0.0112096 9.51779 -0.000976562 9.12103C-0.0110273 8.72454 0.134957 8.32501 0.4375 8.0224C0.534229 7.92566 0.641583 7.84597 0.754883 7.78119L8.09668 0.439388Z" fill="#F5A12D"/>
</svg>
