<svg width="24" height="24" viewBox="0 0 24 24" fill="none" xmlns="http://www.w3.org/2000/svg">
<path d="M21.5605 8.23291C22.1459 7.64718 22.146 6.69752 21.5605 6.11182C20.9748 5.52603 20.0243 5.52603 19.4385 6.11182L12.2129 13.3384L4.98633 6.11182C4.40054 5.52611 3.45099 5.52606 2.86523 6.11182C2.27949 6.69758 2.27953 7.64712 2.86523 8.23291L10.8613 16.23C10.9274 16.3486 11.0096 16.4613 11.1104 16.562C11.4139 16.8654 11.8152 17.0096 12.2129 16.9985C12.6105 17.0095 13.012 16.8655 13.3154 16.562C13.4169 16.4605 13.5001 16.3476 13.5664 16.228L21.5605 8.23291Z" fill="white"/>
<path d="M21.5605 8.23291C22.1459 7.64718 22.146 6.69752 21.5605 6.11182C20.9748 5.52603 20.0243 5.52603 19.4385 6.11182L12.2129 13.3384L4.98633 6.11182C4.40054 5.52611 3.45099 5.52606 2.86523 6.11182C2.27949 6.69758 2.27953 7.64712 2.86523 8.23291L10.8613 16.23C10.9274 16.3486 11.0096 16.4613 11.1104 16.562C11.4139 16.8654 11.8152 17.0096 12.2129 16.9985C12.6105 17.0095 13.012 16.8655 13.3154 16.562C13.4169 16.4605 13.5001 16.3476 13.5664 16.228L21.5605 8.23291Z" fill="#F39E00"/>
</svg>
