<svg width="11" height="19" viewBox="0 0 11 19" fill="none" xmlns="http://www.w3.org/2000/svg">
<path d="M8.09668 0.439209C8.68244 -0.14647 9.63301 -0.146505 10.2188 0.439209C10.8045 1.02496 10.8044 1.97547 10.2188 2.56128L3.6582 9.12085L10.2188 15.6814C10.8044 16.2672 10.8045 17.2177 10.2188 17.8035C9.633 18.3892 8.68245 18.3892 8.09668 17.8035L0.754883 10.4607C0.64185 10.396 0.534025 10.317 0.4375 10.2205C0.134853 9.91764 -0.0102827 9.51755 0 9.12085C-0.0100035 8.72447 0.135097 8.32477 0.4375 8.02222C0.534151 7.92556 0.641685 7.84577 0.754883 7.78101L8.09668 0.439209Z" fill="#F5A12D"/>
</svg>
