<svg width="24" height="24" viewBox="0 0 24 24" fill="none" xmlns="http://www.w3.org/2000/svg">
<g filter="url(#filter0_i_86_2600)">
<circle cx="12" cy="12" r="12" fill="white"/>
</g>
<path d="M11.7734 6.22534C11.1876 5.63977 10.2381 5.63962 9.65234 6.22534C9.06683 6.81108 9.06684 7.7607 9.65234 8.34644L13.2109 11.905L9.65234 15.4636C9.06686 16.0494 9.06666 16.999 9.65234 17.5847C10.238 18.1704 11.1876 18.1702 11.7734 17.5847L16.1738 13.1843C16.2593 13.1285 16.341 13.064 16.416 12.989C16.715 12.69 16.8597 12.2959 16.8535 11.9041C16.8594 11.5127 16.7146 11.1197 16.416 10.821C16.3407 10.7457 16.2596 10.6797 16.1738 10.6238L11.7734 6.22534Z" fill="#F5A12D"/>
<defs>
<filter id="filter0_i_86_2600" x="0" y="0" width="24" height="24" filterUnits="userSpaceOnUse" color-interpolation-filters="sRGB">
<feFlood flood-opacity="0" result="BackgroundImageFix"/>
<feBlend mode="normal" in="SourceGraphic" in2="BackgroundImageFix" result="shape"/>
<feColorMatrix in="SourceAlpha" type="matrix" values="0 0 0 0 0 0 0 0 0 0 0 0 0 0 0 0 0 0 127 0" result="hardAlpha"/>
<feOffset/>
<feGaussianBlur stdDeviation="1"/>
<feComposite in2="hardAlpha" operator="arithmetic" k2="-1" k3="1"/>
<feColorMatrix type="matrix" values="0 0 0 0 0 0 0 0 0 0 0 0 0 0 0 0 0 0 0.25 0"/>
<feBlend mode="normal" in2="shape" result="effect1_innerShadow_86_2600"/>
</filter>
</defs>
</svg>
