<svg width="80" height="80" viewBox="0 0 80 80" fill="none" xmlns="http://www.w3.org/2000/svg">
<g filter="url(#filter0_i_108_2033)">
<circle cx="40" cy="40" r="40" fill="#F5A12D"/>
</g>
<path d="M39.2461 20.7496C37.2935 18.7972 34.1274 18.7971 32.1748 20.7496C30.2223 22.7021 30.2224 25.8682 32.1748 27.8209L44.0361 39.6812L32.1748 51.5426C30.2226 53.4951 30.2226 56.6603 32.1748 58.6129C34.1274 60.5655 37.2935 60.5655 39.2461 58.6129L53.9023 43.9566C54.1916 43.7689 54.4661 43.5491 54.7197 43.2955C55.716 42.2992 56.204 40.9869 56.1836 39.6812C56.2038 38.3758 55.7158 37.064 54.7197 36.068C54.466 35.8142 54.1917 35.5936 53.9023 35.4058L39.2461 20.7496Z" fill="white"/>
<defs>
<filter id="filter0_i_108_2033" x="0" y="0" width="80" height="80" filterUnits="userSpaceOnUse" color-interpolation-filters="sRGB">
<feFlood flood-opacity="0" result="BackgroundImageFix"/>
<feBlend mode="normal" in="SourceGraphic" in2="BackgroundImageFix" result="shape"/>
<feColorMatrix in="SourceAlpha" type="matrix" values="0 0 0 0 0 0 0 0 0 0 0 0 0 0 0 0 0 0 127 0" result="hardAlpha"/>
<feOffset/>
<feGaussianBlur stdDeviation="3.33333"/>
<feComposite in2="hardAlpha" operator="arithmetic" k2="-1" k3="1"/>
<feColorMatrix type="matrix" values="0 0 0 0 0 0 0 0 0 0 0 0 0 0 0 0 0 0 0.25 0"/>
<feBlend mode="normal" in2="shape" result="effect1_innerShadow_108_2033"/>
</filter>
</defs>
</svg>
