<svg width="80" height="80" viewBox="0 0 80 80" fill="none" xmlns="http://www.w3.org/2000/svg">
<g clip-path="url(#clip0_108_2046)">
<path d="M63.3333 6.66667H60V3.33333C60 2.44928 59.6488 1.60143 59.0237 0.976311C58.3986 0.35119 57.5507 0 56.6667 0C55.7826 0 54.9348 0.35119 54.3096 0.976311C53.6845 1.60143 53.3333 2.44928 53.3333 3.33333V6.66667H26.6667V3.33333C26.6667 2.44928 26.3155 1.60143 25.6904 0.976311C25.0652 0.35119 24.2174 0 23.3333 0C22.4493 0 21.6014 0.35119 20.9763 0.976311C20.3512 1.60143 20 2.44928 20 3.33333V6.66667H16.6667C12.248 6.67196 8.01186 8.42961 4.8874 11.5541C1.76294 14.6785 0.00529286 18.9147 0 23.3333L0 63.3333C0.00529286 67.752 1.76294 71.9881 4.8874 75.1126C8.01186 78.2371 12.248 79.9947 16.6667 80H63.3333C67.752 79.9947 71.9881 78.2371 75.1126 75.1126C78.2371 71.9881 79.9947 67.752 80 63.3333V23.3333C79.9947 18.9147 78.2371 14.6785 75.1126 11.5541C71.9881 8.42961 67.752 6.67196 63.3333 6.66667ZM6.66667 23.3333C6.66667 20.6812 7.72024 18.1376 9.5956 16.2623C11.471 14.3869 14.0145 13.3333 16.6667 13.3333H63.3333C65.9855 13.3333 68.529 14.3869 70.4044 16.2623C72.2798 18.1376 73.3333 20.6812 73.3333 23.3333V26.6667H6.66667V23.3333ZM63.3333 73.3333H16.6667C14.0145 73.3333 11.471 72.2798 9.5956 70.4044C7.72024 68.529 6.66667 65.9855 6.66667 63.3333V33.3333H73.3333V63.3333C73.3333 65.9855 72.2798 68.529 70.4044 70.4044C68.529 72.2798 65.9855 73.3333 63.3333 73.3333Z" fill="#F39E00"/>
<path d="M40 55C42.7614 55 45 52.7614 45 50C45 47.2386 42.7614 45 40 45C37.2386 45 35 47.2386 35 50C35 52.7614 37.2386 55 40 55Z" fill="#F39E00"/>
<path d="M23.334 55C26.0954 55 28.334 52.7614 28.334 50C28.334 47.2386 26.0954 45 23.334 45C20.5726 45 18.334 47.2386 18.334 50C18.334 52.7614 20.5726 55 23.334 55Z" fill="#F39E00"/>
<path d="M56.666 55C59.4274 55 61.666 52.7614 61.666 50C61.666 47.2386 59.4274 45 56.666 45C53.9046 45 51.666 47.2386 51.666 50C51.666 52.7614 53.9046 55 56.666 55Z" fill="#F39E00"/>
</g>
<defs>
<clipPath id="clip0_108_2046">
<rect width="80" height="80" fill="white"/>
</clipPath>
</defs>
</svg>
